<svg width="49" height="58" viewBox="0 0 49 58" fill="none" xmlns="http://www.w3.org/2000/svg">
<path d="M48.3485 16.2679L32.7576 0.652501C32.5506 0.445409 32.3049 0.281193 32.0345 0.169235C31.7642 0.0572768 31.4744 -0.000229738 31.1818 6.8975e-07H4.45455C3.27313 6.8975e-07 2.1401 0.470054 1.30471 1.30675C0.469317 2.14346 0 3.27827 0 4.46154V53.5385C0 54.7217 0.469317 55.8565 1.30471 56.6932C2.1401 57.5299 3.27313 58 4.45455 58H44.5455C45.7269 58 46.8599 57.5299 47.6953 56.6932C48.5307 55.8565 49 54.7217 49 53.5385V17.8462C49.0002 17.5531 48.9428 17.2629 48.831 16.9921C48.7193 16.7213 48.5553 16.4752 48.3485 16.2679ZM33.4091 7.61529L41.3966 15.6154H33.4091V7.61529ZM44.5455 53.5385H4.45455V4.46154H28.9545V17.8462C28.9545 18.4378 29.1892 19.0052 29.6069 19.4235C30.0246 19.8419 30.5911 20.0769 31.1818 20.0769H44.5455V53.5385ZM32.7576 36.3448C32.9647 36.552 33.129 36.798 33.2411 37.0688C33.3532 37.3396 33.4108 37.6299 33.4108 37.9231C33.4108 38.2162 33.3532 38.5065 33.2411 38.7773C33.129 39.0481 32.9647 39.2942 32.7576 39.5013L26.0758 46.1937C25.8689 46.4011 25.6233 46.5656 25.3529 46.6779C25.0825 46.7901 24.7927 46.8479 24.5 46.8479C24.2073 46.8479 23.9175 46.7901 23.6471 46.6779C23.3767 46.5656 23.1311 46.4011 22.9242 46.1937L16.2424 39.5013C15.8245 39.0828 15.5897 38.515 15.5897 37.9231C15.5897 37.3311 15.8245 36.7634 16.2424 36.3448C16.6603 35.9262 17.2271 35.6911 17.8182 35.6911C18.4092 35.6911 18.9761 35.9262 19.394 36.3448L22.2727 39.2309V26.7692C22.2727 26.1776 22.5074 25.6102 22.9251 25.1918C23.3428 24.7735 23.9093 24.5385 24.5 24.5385C25.0907 24.5385 25.6572 24.7735 26.0749 25.1918C26.4926 25.6102 26.7273 26.1776 26.7273 26.7692V39.2309L29.606 36.3448C29.8129 36.1374 30.0585 35.9729 30.3289 35.8606C30.5993 35.7483 30.8891 35.6906 31.1818 35.6906C31.4745 35.6906 31.7643 35.7483 32.0347 35.8606C32.3051 35.9729 32.5508 36.1374 32.7576 36.3448Z" fill="#524F62"/>
</svg>
