<svg width="107" height="107" viewBox="0 0 107 107" fill="none" xmlns="http://www.w3.org/2000/svg">
<circle cx="53.5" cy="53.5" r="53.5" fill="#F5F5F5"/>
<path d="M34.0607 62.163H46.6597V69H24.6007V62.593L37.0707 45.479H24.6007V38.685H46.6597V45.092L34.0607 62.163ZM59.2278 61.991H69.5048V69H49.9398V62.335L59.5288 51.886H50.0258V44.877H69.1608V51.542L59.2278 61.991ZM77.1087 69.344C75.6181 69.344 74.4141 68.9427 73.4967 68.14C72.6081 67.3087 72.1637 66.2623 72.1637 65.001C72.1637 63.7397 72.6081 62.6933 73.4967 61.862C74.4141 61.0307 75.6181 60.615 77.1087 60.615C78.5707 60.615 79.7461 61.0307 80.6347 61.862C81.5521 62.6933 82.0107 63.7397 82.0107 65.001C82.0107 66.2337 81.5521 67.2657 80.6347 68.097C79.7461 68.9283 78.5707 69.344 77.1087 69.344Z" fill="#524F62"/>
</svg>
